<svg xmlns="http://www.w3.org/2000/svg" viewBox="0 0 512 512" role="img" aria-labelledby="title desc">
  <title id="title">Tdarr Subtitle OCR icon</title>
  <desc id="desc">Film frame above subtitle lines with OCR lettering.</desc>
  <defs>
    <linearGradient id="bg" x1="0%" x2="100%" y1="0%" y2="100%">
      <stop offset="0%" stop-color="#1A2A38" />
      <stop offset="100%" stop-color="#0A1118" />
    </linearGradient>
  </defs>
  <rect width="512" height="512" rx="96" fill="url(#bg)" />
  <rect x="72" y="76" width="368" height="184" rx="30" fill="#1BC4A9" />
  <g fill="#101820">
    <rect x="98" y="94" width="26" height="26" rx="6" />
    <rect x="160" y="94" width="26" height="26" rx="6" />
    <rect x="222" y="94" width="26" height="26" rx="6" />
    <rect x="284" y="94" width="26" height="26" rx="6" />
    <rect x="346" y="94" width="26" height="26" rx="6" />
    <rect x="388" y="94" width="26" height="26" rx="6" />
    <rect x="98" y="216" width="26" height="26" rx="6" />
    <rect x="160" y="216" width="26" height="26" rx="6" />
    <rect x="222" y="216" width="26" height="26" rx="6" />
    <rect x="284" y="216" width="26" height="26" rx="6" />
    <rect x="346" y="216" width="26" height="26" rx="6" />
    <rect x="388" y="216" width="26" height="26" rx="6" />
  </g>
  <text x="256" y="188" fill="#F5F7FA" font-family="'Segoe UI', Arial, sans-serif" font-size="74" font-weight="700" text-anchor="middle">OCR</text>
  <rect x="106" y="304" width="300" height="86" rx="24" fill="none" stroke="#FFBF57" stroke-width="10" />
  <rect x="140" y="330" width="232" height="12" rx="6" fill="#FFBF57" />
  <rect x="140" y="356" width="170" height="12" rx="6" fill="#FFBF57" />
  <text x="256" y="444" fill="#8293A3" font-family="'Segoe UI', Arial, sans-serif" font-size="30" font-weight="700" letter-spacing="4" text-anchor="middle">TDARR</text>
</svg>
